<?xml version="1.0" encoding="UTF-8" standalone="no"?><svg xmlns="http://www.w3.org/2000/svg" xmlns:xlink="http://www.w3.org/1999/xlink" contentStyleType="text/css" height="702px" preserveAspectRatio="none" style="width:4450px;height:702px;background:#FFFFFF;" version="1.1" viewBox="0 0 4450 702" width="4450px" zoomAndPan="magnify"><defs/><g><!--MD5=[e4faacc5b8aef66b11ab0c816bbbc7f8]
class Scene--><g id="elem_Scene"><rect codeLine="2" fill="#F1F1F1" height="145.7813" id="Scene" rx="2.5" ry="2.5" style="stroke:#181818;stroke-width:0.5;" width="217" x="536.5" y="56"/><ellipse cx="618.75" cy="72" fill="#FFAAAA" rx="11" ry="11" style="stroke:#181818;stroke-width:1.0;"/><path d="M618.4219,78.6719 Q617.5,78.6719 616.6094,78.5 Q615.7188,78.3125 614.9375,77.9375 L614.9375,75.6875 Q615.8906,76.1719 616.7656,76.4063 Q617.6563,76.625 618.5,76.625 Q619.375,76.625 619.9375,76.3281 Q620.5,76.0313 620.5,75.25 Q620.5,74.7031 620.2031,74.4063 Q619.9063,74.0938 619.3438,73.8125 Q618.7813,73.5313 618,73.125 Q617.2188,72.7031 616.5625,72.2188 Q615.9219,71.7188 615.5469,71.0469 Q615.1719,70.375 615.1719,69.4219 Q615.1719,67.7969 616.2656,67 Q617.375,66.1875 619.1563,66.1875 Q619.875,66.1875 620.8594,66.3594 Q621.8438,66.5156 622.7969,66.9688 L622.0156,68.8906 Q621.1719,68.5313 620.4844,68.3906 Q619.8125,68.2344 619.2969,68.2344 Q618.4531,68.2344 618.0625,68.5781 Q617.6875,68.9063 617.6875,69.5469 Q617.6875,70.0313 617.9219,70.3438 Q618.1719,70.6406 618.6406,70.8906 Q619.125,71.1406 619.8594,71.5156 Q620.8594,72 621.5625,72.4688 Q622.2656,72.9375 622.6406,73.5625 Q623.0156,74.1719 623.0156,75.1094 Q623.0156,76.2969 622.4375,77.0938 Q621.875,77.875 620.8281,78.2813 Q619.7969,78.6719 618.4219,78.6719 Z " fill="#000000"/><text fill="#000000" font-family="sans-serif" font-size="14" lengthAdjust="spacing" textLength="44" x="639.25" y="76.8467">Scene</text><line style="stroke:#181818;stroke-width:0.5;" x1="537.5" x2="752.5" y1="88" y2="88"/><rect fill="none" height="6" style="stroke:#C82930;stroke-width:1.0;" width="6" x="544.5" y="98.6484"/><text fill="#000000" font-family="sans-serif" font-size="14" lengthAdjust="spacing" textLength="191" x="556.5" y="104.9951">objects: vector&lt;Primitive*&gt;</text><rect fill="none" height="6" style="stroke:#C82930;stroke-width:1.0;" width="6" x="544.5" y="114.9453"/><text fill="#000000" font-family="sans-serif" font-size="14" lengthAdjust="spacing" textLength="153" x="556.5" y="121.292">lights: vector&lt;Light*&gt;</text><rect fill="none" height="6" style="stroke:#C82930;stroke-width:1.0;" width="6" x="544.5" y="131.2422"/><text fill="#000000" font-family="sans-serif" font-size="14" lengthAdjust="spacing" textLength="113" x="556.5" y="137.5889">camera: Camera</text><line style="stroke:#181818;stroke-width:0.5;" x1="537.5" x2="752.5" y1="144.8906" y2="144.8906"/><ellipse cx="547.5" cy="158.5391" fill="#84BE84" rx="3" ry="3" style="stroke:#038048;stroke-width:1.0;"/><text fill="#000000" font-family="sans-serif" font-size="14" lengthAdjust="spacing" textLength="54" x="556.5" y="161.8857">Scene()</text><ellipse cx="547.5" cy="174.8359" fill="#84BE84" rx="3" ry="3" style="stroke:#038048;stroke-width:1.0;"/><text fill="#000000" font-family="sans-serif" font-size="14" lengthAdjust="spacing" textLength="102" x="556.5" y="178.1826">load_settings()</text><ellipse cx="547.5" cy="191.1328" fill="#84BE84" rx="3" ry="3" style="stroke:#038048;stroke-width:1.0;"/><text fill="#000000" font-family="sans-serif" font-size="14" lengthAdjust="spacing" textLength="105" x="556.5" y="194.4795">render_image()</text></g><!--MD5=[740767bd72024d5ab947380b301ba908]
class Ray--><g id="elem_Ray"><rect codeLine="12" fill="#F1F1F1" height="243.5625" id="Ray" rx="2.5" ry="2.5" style="stroke:#181818;stroke-width:0.5;" width="720" x="789" y="7"/><ellipse cx="1132.25" cy="23" fill="#FF00FF" rx="11" ry="11" style="stroke:#181818;stroke-width:1.0;"/><path d="M1128.1094,29.5 L1128.1094,17.3594 L1131.3594,17.3594 Q1133.5156,17.3594 1134.6406,18.3281 Q1135.7813,19.2969 1135.7813,21.0156 Q1135.7813,22.2656 1135.2188,23.0938 Q1134.6719,23.9063 1133.7188,24.3594 L1136.6875,29.5 L1134.0781,29.5 L1131.5469,24.9219 L1130.5781,24.9219 L1130.5781,29.5 L1128.1094,29.5 Z M1131.3125,22.8438 Q1133.2969,22.8438 1133.2969,21.0625 Q1133.2969,20.1719 1132.7813,19.8125 Q1132.2656,19.4531 1131.25,19.4531 L1130.5781,19.4531 L1130.5781,22.8438 L1131.3125,22.8438 Z " fill="#000000"/><text fill="#000000" font-family="sans-serif" font-size="14" lengthAdjust="spacing" textLength="25" x="1152.75" y="27.8467">Ray</text><line style="stroke:#181818;stroke-width:0.5;" x1="790" x2="1508" y1="39" y2="39"/><rect fill="none" height="6" style="stroke:#C82930;stroke-width:1.0;" width="6" x="797" y="49.6484"/><text fill="#000000" font-family="sans-serif" font-size="14" lengthAdjust="spacing" textLength="126" x="809" y="55.9951">location: Vector3d</text><rect fill="none" height="6" style="stroke:#C82930;stroke-width:1.0;" width="6" x="797" y="65.9453"/><text fill="#000000" font-family="sans-serif" font-size="14" lengthAdjust="spacing" textLength="132" x="809" y="72.292">direction: Vector3d</text><rect fill="none" height="6" style="stroke:#C82930;stroke-width:1.0;" width="6" x="797" y="82.2422"/><text fill="#000000" font-family="sans-serif" font-size="14" lengthAdjust="spacing" textLength="119" x="809" y="88.5889">ref_index: double</text><line style="stroke:#181818;stroke-width:0.5;" x1="790" x2="1508" y1="95.8906" y2="95.8906"/><ellipse cx="800" cy="109.5391" fill="#84BE84" rx="3" ry="3" style="stroke:#038048;stroke-width:1.0;"/><text fill="#000000" font-family="sans-serif" font-size="14" lengthAdjust="spacing" textLength="35" x="809" y="112.8857">Ray()</text><ellipse cx="800" cy="125.8359" fill="#84BE84" rx="3" ry="3" style="stroke:#038048;stroke-width:1.0;"/><text fill="#000000" font-family="sans-serif" font-size="14" lengthAdjust="spacing" textLength="420" x="809" y="129.1826">Ray(loc: Vector3d, direct: Vector3d, refraction_index: double)</text><ellipse cx="800" cy="142.1328" fill="#84BE84" rx="3" ry="3" style="stroke:#038048;stroke-width:1.0;"/><text fill="#000000" font-family="sans-serif" font-size="14" lengthAdjust="spacing" textLength="185" x="809" y="145.4795">set_location(loc: Vector3d)</text><ellipse cx="800" cy="158.4297" fill="#84BE84" rx="3" ry="3" style="stroke:#038048;stroke-width:1.0;"/><text fill="#000000" font-family="sans-serif" font-size="14" lengthAdjust="spacing" textLength="210" x="809" y="161.7764">set_direction(direct: Vector3d)</text><ellipse cx="800" cy="174.7266" fill="#84BE84" rx="3" ry="3" style="stroke:#038048;stroke-width:1.0;"/><text fill="#000000" font-family="sans-serif" font-size="14" lengthAdjust="spacing" textLength="166" x="809" y="178.0732">get_location(): Vector3d</text><ellipse cx="800" cy="191.0234" fill="#84BE84" rx="3" ry="3" style="stroke:#038048;stroke-width:1.0;"/><text fill="#000000" font-family="sans-serif" font-size="14" lengthAdjust="spacing" textLength="172" x="809" y="194.3701">get_direction(): Vector3d</text><ellipse cx="800" cy="207.3203" fill="#84BE84" rx="3" ry="3" style="stroke:#038048;stroke-width:1.0;"/><text fill="#000000" font-family="sans-serif" font-size="14" lengthAdjust="spacing" textLength="591" x="809" y="210.667">trace_ray(objects: vector&lt;Primitive*&gt;, lights: vector&lt;Light*&gt;, bounces: int): Vector3d</text><ellipse cx="800" cy="223.6172" fill="#84BE84" rx="3" ry="3" style="stroke:#038048;stroke-width:1.0;"/><text fill="#000000" font-family="sans-serif" font-size="14" lengthAdjust="spacing" textLength="532" x="809" y="226.9639">compute_closest_object(objects: vector&lt;Primitive*&gt;, distance: double&amp;): int</text><ellipse cx="800" cy="239.9141" fill="#84BE84" rx="3" ry="3" style="stroke:#038048;stroke-width:1.0;"/><text fill="#000000" font-family="sans-serif" font-size="14" lengthAdjust="spacing" textLength="694" x="809" y="243.2607">compute_light(objects: vector&lt;Primitive*&gt;, lights: vector&lt;Light*&gt;, intersection: Vector3d): Vector3d</text></g><!--MD5=[22ef332f2e00f62045cdd32cc3eb4427]
class Scene_Element--><g id="elem_Scene_Element"><rect codeLine="28" fill="#F1F1F1" height="194.6719" id="Scene_Element" rx="2.5" ry="2.5" style="stroke:#181818;stroke-width:0.5;" width="519" x="1544.5" y="31.5"/><ellipse cx="1745.75" cy="47.5" fill="#0000FA" rx="11" ry="11" style="stroke:#181818;stroke-width:1.0;"/><path d="M1745.4219,54.1719 Q1744.5,54.1719 1743.6094,54 Q1742.7188,53.8125 1741.9375,53.4375 L1741.9375,51.1875 Q1742.8906,51.6719 1743.7656,51.9063 Q1744.6563,52.125 1745.5,52.125 Q1746.375,52.125 1746.9375,51.8281 Q1747.5,51.5313 1747.5,50.75 Q1747.5,50.2031 1747.2031,49.9063 Q1746.9063,49.5938 1746.3438,49.3125 Q1745.7813,49.0313 1745,48.625 Q1744.2188,48.2031 1743.5625,47.7188 Q1742.9219,47.2188 1742.5469,46.5469 Q1742.1719,45.875 1742.1719,44.9219 Q1742.1719,43.2969 1743.2656,42.5 Q1744.375,41.6875 1746.1563,41.6875 Q1746.875,41.6875 1747.8594,41.8594 Q1748.8438,42.0156 1749.7969,42.4688 L1749.0156,44.3906 Q1748.1719,44.0313 1747.4844,43.8906 Q1746.8125,43.7344 1746.2969,43.7344 Q1745.4531,43.7344 1745.0625,44.0781 Q1744.6875,44.4063 1744.6875,45.0469 Q1744.6875,45.5313 1744.9219,45.8438 Q1745.1719,46.1406 1745.6406,46.3906 Q1746.125,46.6406 1746.8594,47.0156 Q1747.8594,47.5 1748.5625,47.9688 Q1749.2656,48.4375 1749.6406,49.0625 Q1750.0156,49.6719 1750.0156,50.6094 Q1750.0156,51.7969 1749.4375,52.5938 Q1748.875,53.375 1747.8281,53.7813 Q1746.7969,54.1719 1745.4219,54.1719 Z " fill="#000000"/><text fill="#000000" font-family="sans-serif" font-size="14" lengthAdjust="spacing" textLength="108" x="1766.25" y="52.3467">Scene_Element</text><line style="stroke:#181818;stroke-width:0.5;" x1="1545.5" x2="2062.5" y1="63.5" y2="63.5"/><polygon fill="none" points="1555.5,72.1484,1559.5,76.1484,1555.5,80.1484,1551.5,76.1484" style="stroke:#B38D22;stroke-width:1.0;"/><text fill="#000000" font-family="sans-serif" font-size="14" lengthAdjust="spacing" textLength="126" x="1564.5" y="80.4951">location: Vector3d</text><polygon fill="none" points="1555.5,88.4453,1559.5,92.4453,1555.5,96.4453,1551.5,92.4453" style="stroke:#B38D22;stroke-width:1.0;"/><text fill="#000000" font-family="sans-serif" font-size="14" lengthAdjust="spacing" textLength="125" x="1564.5" y="96.792">rotation: Vector3d</text><polygon fill="none" points="1555.5,104.7422,1559.5,108.7422,1555.5,112.7422,1551.5,108.7422" style="stroke:#B38D22;stroke-width:1.0;"/><text fill="#000000" font-family="sans-serif" font-size="14" lengthAdjust="spacing" textLength="108" x="1564.5" y="113.0889">scale: Vector3d</text><line style="stroke:#181818;stroke-width:0.5;" x1="1545.5" x2="2062.5" y1="120.3906" y2="120.3906"/><ellipse cx="1555.5" cy="134.0391" fill="#84BE84" rx="3" ry="3" style="stroke:#038048;stroke-width:1.0;"/><text fill="#000000" font-family="sans-serif" font-size="14" lengthAdjust="spacing" textLength="493" x="1564.5" y="137.3857">Scene_Element(location: Vector3d, rotation: Vector3d, scale: Vector3d)</text><ellipse cx="1555.5" cy="150.3359" fill="#84BE84" rx="3" ry="3" style="stroke:#038048;stroke-width:1.0;"/><text fill="#000000" font-family="sans-serif" font-size="14" lengthAdjust="spacing" textLength="118" x="1564.5" y="153.6826">Scene_Element()</text><ellipse cx="1555.5" cy="166.6328" fill="#84BE84" rx="3" ry="3" style="stroke:#038048;stroke-width:1.0;"/><text fill="#000000" font-family="sans-serif" font-size="14" lengthAdjust="spacing" textLength="166" x="1564.5" y="169.9795">get_location(): Vector3d</text><ellipse cx="1555.5" cy="182.9297" fill="#84BE84" rx="3" ry="3" style="stroke:#038048;stroke-width:1.0;"/><text fill="#000000" font-family="sans-serif" font-size="14" lengthAdjust="spacing" textLength="165" x="1564.5" y="186.2764">get_rotation(): Vector3d</text><ellipse cx="1555.5" cy="199.2266" fill="#84BE84" rx="3" ry="3" style="stroke:#038048;stroke-width:1.0;"/><text fill="#000000" font-family="sans-serif" font-size="14" lengthAdjust="spacing" textLength="148" x="1564.5" y="202.5732">get_scale(): Vector3d</text><ellipse cx="1555.5" cy="215.5234" fill="#84BE84" rx="3" ry="3" style="stroke:#038048;stroke-width:1.0;"/><text fill="#000000" font-family="sans-serif" font-size="14" lengthAdjust="spacing" textLength="268" x="1564.5" y="218.8701">global(local_point: Vector3d): Vector3d</text></g><!--MD5=[452be1aaf8b94e2bc4204d466ef769a4]
class Camera--><g id="elem_Camera"><rect codeLine="41" fill="#F1F1F1" height="145.7813" id="Camera" rx="2.5" ry="2.5" style="stroke:#181818;stroke-width:0.5;" width="597" x="1017.5" y="335.5"/><ellipse cx="1285.25" cy="351.5" fill="#00AA00" rx="11" ry="11" style="stroke:#181818;stroke-width:1.0;"/><path d="M1284.7188,358.4219 Q1282.9688,358.4219 1281.8281,357.6875 Q1280.7031,356.9375 1280.1406,355.5938 Q1279.5938,354.2344 1279.5938,352.4375 Q1279.5938,350.4063 1280.25,348.9531 Q1280.9063,347.5 1282.1875,346.7188 Q1283.4688,345.9375 1285.3438,345.9375 Q1286.2344,345.9375 1286.9063,346.125 Q1287.5781,346.2969 1288.2656,346.6406 L1287.4531,348.6563 Q1286.8281,348.3438 1286.2813,348.2188 Q1285.75,348.0938 1285.2656,348.0938 Q1284.0938,348.0938 1283.3906,348.625 Q1282.6875,349.1563 1282.3906,350.1094 Q1282.0938,351.0625 1282.0938,352.3281 Q1282.0938,354.3438 1282.8125,355.3125 Q1283.5313,356.2656 1285.125,356.2656 Q1285.7188,356.2656 1286.3438,356.1094 Q1286.9688,355.9531 1287.7969,355.5781 L1287.7969,357.7969 Q1287.0625,358.1094 1286.2656,358.2656 Q1285.4844,358.4219 1284.7188,358.4219 Z " fill="#000000"/><text fill="#000000" font-family="sans-serif" font-size="14" lengthAdjust="spacing" textLength="53" x="1305.75" y="356.3467">Camera</text><line style="stroke:#181818;stroke-width:0.5;" x1="1018.5" x2="1613.5" y1="367.5" y2="367.5"/><ellipse cx="1028.5" cy="381.1484" fill="none" rx="3" ry="3" style="stroke:#038048;stroke-width:1.0;"/><text fill="#000000" font-family="sans-serif" font-size="14" lengthAdjust="spacing" textLength="170" x="1037.5" y="384.4951">screen_res: vector&lt;int&gt;</text><ellipse cx="1028.5" cy="397.4453" fill="none" rx="3" ry="3" style="stroke:#038048;stroke-width:1.0;"/><text fill="#000000" font-family="sans-serif" font-size="14" lengthAdjust="spacing" textLength="237" x="1037.5" y="400.792">screen_points: vector&lt;Vector3d&gt;</text><line style="stroke:#181818;stroke-width:0.5;" x1="1018.5" x2="1613.5" y1="408.0938" y2="408.0938"/><ellipse cx="1028.5" cy="421.7422" fill="#84BE84" rx="3" ry="3" style="stroke:#038048;stroke-width:1.0;"/><text fill="#000000" font-family="sans-serif" font-size="14" lengthAdjust="spacing" textLength="428" x="1037.5" y="425.0889">Camera(location: Vector3d, rotation: Vector3d, depth: double)</text><ellipse cx="1028.5" cy="438.0391" fill="#84BE84" rx="3" ry="3" style="stroke:#038048;stroke-width:1.0;"/><text fill="#000000" font-family="sans-serif" font-size="14" lengthAdjust="spacing" textLength="63" x="1037.5" y="441.3857">Camera()</text><ellipse cx="1028.5" cy="454.3359" fill="#84BE84" rx="3" ry="3" style="stroke:#038048;stroke-width:1.0;"/><text fill="#000000" font-family="sans-serif" font-size="14" lengthAdjust="spacing" textLength="177" x="1037.5" y="457.6826">compute_screen_points()</text><ellipse cx="1028.5" cy="470.6328" fill="#84BE84" rx="3" ry="3" style="stroke:#038048;stroke-width:1.0;"/><text fill="#000000" font-family="sans-serif" font-size="14" lengthAdjust="spacing" textLength="571" x="1037.5" y="473.9795">send_rays(objects: vector&lt;Primitive*&gt;, lights: vector&lt;Light*&gt;): vector&lt;Vector3d&gt;</text></g><!--MD5=[7c1a0278dec21c72584b17e1785fd623]
class Light--><g id="elem_Light"><rect codeLine="52" fill="#F1F1F1" height="113.1875" id="Light" rx="2.5" ry="2.5" style="stroke:#181818;stroke-width:0.5;" width="309" x="1649.5" y="352"/><ellipse cx="1783.25" cy="368" fill="#FFFF00" rx="11" ry="11" style="stroke:#181818;stroke-width:1.0;"/><path d="M1779.2813,374.5 L1779.2813,362.3594 L1781.75,362.3594 L1781.75,372.3281 L1786.7656,372.3281 L1786.7656,374.5 L1779.2813,374.5 Z " fill="#000000"/><text fill="#000000" font-family="sans-serif" font-size="14" lengthAdjust="spacing" textLength="33" x="1803.75" y="372.8467">Light</text><line style="stroke:#181818;stroke-width:0.5;" x1="1650.5" x2="1957.5" y1="384" y2="384"/><rect fill="none" height="6" style="stroke:#C82930;stroke-width:1.0;" width="6" x="1657.5" y="394.6484"/><text fill="#000000" font-family="sans-serif" font-size="14" lengthAdjust="spacing" textLength="106" x="1669.5" y="400.9951">color: Vector3d</text><line style="stroke:#181818;stroke-width:0.5;" x1="1650.5" x2="1957.5" y1="408.2969" y2="408.2969"/><ellipse cx="1660.5" cy="421.9453" fill="#84BE84" rx="3" ry="3" style="stroke:#038048;stroke-width:1.0;"/><text fill="#000000" font-family="sans-serif" font-size="14" lengthAdjust="spacing" textLength="283" x="1669.5" y="425.292">Light(location: Vector3d, color: Vector3d)</text><ellipse cx="1660.5" cy="438.2422" fill="#84BE84" rx="3" ry="3" style="stroke:#038048;stroke-width:1.0;"/><text fill="#000000" font-family="sans-serif" font-size="14" lengthAdjust="spacing" textLength="268" x="1669.5" y="441.5889">Light(location: Vector3d, color: double)</text><ellipse cx="1660.5" cy="454.5391" fill="#84BE84" rx="3" ry="3" style="stroke:#038048;stroke-width:1.0;"/><text fill="#000000" font-family="sans-serif" font-size="14" lengthAdjust="spacing" textLength="146" x="1669.5" y="457.8857">get_color(): Vector3d</text></g><!--MD5=[204a995c784cbe6b3a7450752a2139a2]
class Primitive--><g id="elem_Primitive"><rect codeLine="61" fill="#F1F1F1" height="194.6719" id="Primitive" rx="2.5" ry="2.5" style="stroke:#181818;stroke-width:0.5;" width="756" x="1994" y="311"/><ellipse cx="2339.25" cy="327" fill="#FF7700" rx="11" ry="11" style="stroke:#181818;stroke-width:1.0;"/><path d="M2336.1094,333.5 L2336.1094,321.3594 L2340.1406,321.3594 Q2342.2344,321.3594 2343.25,322.3438 Q2344.2656,323.3125 2344.2656,325.1406 Q2344.2656,326.3438 2343.8281,327.25 Q2343.4063,328.1563 2342.4531,328.6719 Q2341.5156,329.1875 2339.9844,329.1875 L2338.4844,329.1875 L2338.4844,333.5 L2336.1094,333.5 Z M2339.7344,327.0938 Q2340.7813,327.0938 2341.2969,326.6094 Q2341.8281,326.125 2341.8281,325.2344 Q2341.8281,324.3438 2341.3906,323.9063 Q2340.9688,323.4531 2340.0469,323.4531 L2338.4844,323.4531 L2338.4844,327.0938 L2339.7344,327.0938 Z " fill="#000000"/><text fill="#000000" font-family="sans-serif" font-size="14" lengthAdjust="spacing" textLength="57" x="2359.75" y="331.8467">Primitive</text><line style="stroke:#181818;stroke-width:0.5;" x1="1995" x2="2749" y1="343" y2="343"/><rect fill="none" height="6" style="stroke:#C82930;stroke-width:1.0;" width="6" x="2002" y="353.6484"/><text fill="#000000" font-family="sans-serif" font-size="14" lengthAdjust="spacing" textLength="119" x="2014" y="359.9951">ref_index: double</text><ellipse cx="2005" cy="372.9453" fill="none" rx="3" ry="3" style="stroke:#038048;stroke-width:1.0;"/><text fill="#000000" font-family="sans-serif" font-size="14" lengthAdjust="spacing" textLength="106" x="2014" y="376.292">color: Vector3d</text><line style="stroke:#181818;stroke-width:0.5;" x1="1995" x2="2749" y1="383.5938" y2="383.5938"/><ellipse cx="2005" cy="397.2422" fill="#84BE84" rx="3" ry="3" style="stroke:#038048;stroke-width:1.0;"/><text fill="#000000" font-family="sans-serif" font-size="14" lengthAdjust="spacing" textLength="730" x="2014" y="400.5889">Primitive(location: Vector3d, rotation: Vector3d, scale: Vector3d, color: Vector3d, refraction_index: double)</text><ellipse cx="2005" cy="413.5391" fill="#84BE84" rx="3" ry="3" style="stroke:#038048;stroke-width:1.0;"/><text fill="#000000" font-family="sans-serif" font-size="14" lengthAdjust="spacing" textLength="67" x="2014" y="416.8857">Primitive()</text><ellipse cx="2005" cy="429.8359" fill="#84BE84" rx="3" ry="3" style="stroke:#038048;stroke-width:1.0;"/><text fill="#000000" font-family="sans-serif" font-size="14" lengthAdjust="spacing" textLength="146" x="2014" y="433.1826">get_color(): Vector3d</text><ellipse cx="2005" cy="446.1328" fill="#84BE84" rx="3" ry="3" style="stroke:#038048;stroke-width:1.0;"/><text fill="#000000" font-family="sans-serif" font-size="14" lengthAdjust="spacing" textLength="206" x="2014" y="449.4795">get_refraction_index(): double</text><ellipse cx="2005" cy="462.4297" fill="#84BE84" rx="3" ry="3" style="stroke:#038048;stroke-width:1.0;"/><text fill="#000000" font-family="sans-serif" font-size="14" lengthAdjust="spacing" textLength="148" x="2014" y="465.7764">is_hit(r: Ray*): double</text><ellipse cx="2005" cy="478.7266" fill="#84BE84" rx="3" ry="3" style="stroke:#038048;stroke-width:1.0;"/><text fill="#000000" font-family="sans-serif" font-size="14" lengthAdjust="spacing" textLength="283" x="2014" y="482.0732">normal(intersection: Vector3d): Vector3d</text><ellipse cx="2005" cy="495.0234" fill="#84BE84" rx="3" ry="3" style="stroke:#038048;stroke-width:1.0;"/><text fill="#000000" font-family="sans-serif" font-size="14" lengthAdjust="spacing" textLength="315" x="2014" y="498.3701">reflect_ray(r: Ray, intersection: Vector3d): Ray</text></g><!--MD5=[3e9e85c672fedfc09a4eb00e1bd53162]
class Intersection--><g id="elem_Intersection"><rect codeLine="75" fill="#F1F1F1" height="129.4844" id="Intersection" rx="2.5" ry="2.5" style="stroke:#181818;stroke-width:0.5;" width="1718" x="7" y="566"/><ellipse cx="820.75" cy="582" fill="#ADD1B2" rx="11" ry="11" style="stroke:#181818;stroke-width:1.0;"/><path d="M820.2188,588.9219 Q818.4688,588.9219 817.3281,588.1875 Q816.2031,587.4375 815.6406,586.0938 Q815.0938,584.7344 815.0938,582.9375 Q815.0938,580.9063 815.75,579.4531 Q816.4063,578 817.6875,577.2188 Q818.9688,576.4375 820.8438,576.4375 Q821.7344,576.4375 822.4063,576.625 Q823.0781,576.7969 823.7656,577.1406 L822.9531,579.1563 Q822.3281,578.8438 821.7813,578.7188 Q821.25,578.5938 820.7656,578.5938 Q819.5938,578.5938 818.8906,579.125 Q818.1875,579.6563 817.8906,580.6094 Q817.5938,581.5625 817.5938,582.8281 Q817.5938,584.8438 818.3125,585.8125 Q819.0313,586.7656 820.625,586.7656 Q821.2188,586.7656 821.8438,586.6094 Q822.4688,586.4531 823.2969,586.0781 L823.2969,588.2969 Q822.5625,588.6094 821.7656,588.7656 Q820.9844,588.9219 820.2188,588.9219 Z " fill="#000000"/><text fill="#000000" font-family="sans-serif" font-size="14" lengthAdjust="spacing" textLength="82" x="841.25" y="586.8467">Intersection</text><line style="stroke:#181818;stroke-width:0.5;" x1="8" x2="1724" y1="598" y2="598"/><rect fill="none" height="6" style="stroke:#C82930;stroke-width:1.0;" width="6" x="15" y="608.6484"/><text fill="#000000" font-family="sans-serif" font-size="14" lengthAdjust="spacing" textLength="228" x="27" y="614.9951">components: vector&lt;Primitive*&gt;</text><line style="stroke:#181818;stroke-width:0.5;" x1="8" x2="1724" y1="622.2969" y2="622.2969"/><ellipse cx="18" cy="635.9453" fill="#84BE84" rx="3" ry="3" style="stroke:#038048;stroke-width:1.0;"/><text fill="#000000" font-family="sans-serif" font-size="14" lengthAdjust="spacing" textLength="1692" x="27" y="639.292">Intersection(location: Vector3d, rotation: Vector3d, scale: Vector3d, ambient: Vector3d, diffuse: Vector3d, specular: Vector3d, reflected: Vector3d, refracted: Vector3d, shininess: double, refraction_index: double, components: vector&lt;Primitive*&gt;)</text><ellipse cx="18" cy="652.2422" fill="#84BE84" rx="3" ry="3" style="stroke:#038048;stroke-width:1.0;"/><text fill="#000000" font-family="sans-serif" font-size="14" lengthAdjust="spacing" textLength="148" x="27" y="655.5889">is_hit(r: Ray*): double</text><ellipse cx="18" cy="668.5391" fill="#84BE84" rx="3" ry="3" style="stroke:#038048;stroke-width:1.0;"/><text fill="#000000" font-family="sans-serif" font-size="14" lengthAdjust="spacing" textLength="197" x="27" y="671.8857">inside(point: Vector3d): bool</text><ellipse cx="18" cy="684.8359" fill="#84BE84" rx="3" ry="3" style="stroke:#038048;stroke-width:1.0;"/><text fill="#000000" font-family="sans-serif" font-size="14" lengthAdjust="spacing" textLength="283" x="27" y="688.1826">normal(intersection: Vector3d): Vector3d</text></g><!--MD5=[a4a1d4a65193a4efd41f6e7db368aa7c]
class Sphere--><g id="elem_Sphere"><rect codeLine="85" fill="#F1F1F1" height="96.8906" id="Sphere" rx="2.5" ry="2.5" style="stroke:#181818;stroke-width:0.5;" width="601" x="1760.5" y="582"/><ellipse cx="2031.75" cy="598" fill="#0000FF" rx="11" ry="11" style="stroke:#181818;stroke-width:1.0;"/><path d="M2031.4219,604.6719 Q2030.5,604.6719 2029.6094,604.5 Q2028.7188,604.3125 2027.9375,603.9375 L2027.9375,601.6875 Q2028.8906,602.1719 2029.7656,602.4063 Q2030.6563,602.625 2031.5,602.625 Q2032.375,602.625 2032.9375,602.3281 Q2033.5,602.0313 2033.5,601.25 Q2033.5,600.7031 2033.2031,600.4063 Q2032.9063,600.0938 2032.3438,599.8125 Q2031.7813,599.5313 2031,599.125 Q2030.2188,598.7031 2029.5625,598.2188 Q2028.9219,597.7188 2028.5469,597.0469 Q2028.1719,596.375 2028.1719,595.4219 Q2028.1719,593.7969 2029.2656,593 Q2030.375,592.1875 2032.1563,592.1875 Q2032.875,592.1875 2033.8594,592.3594 Q2034.8438,592.5156 2035.7969,592.9688 L2035.0156,594.8906 Q2034.1719,594.5313 2033.4844,594.3906 Q2032.8125,594.2344 2032.2969,594.2344 Q2031.4531,594.2344 2031.0625,594.5781 Q2030.6875,594.9063 2030.6875,595.5469 Q2030.6875,596.0313 2030.9219,596.3438 Q2031.1719,596.6406 2031.6406,596.8906 Q2032.125,597.1406 2032.8594,597.5156 Q2033.8594,598 2034.5625,598.4688 Q2035.2656,598.9375 2035.6406,599.5625 Q2036.0156,600.1719 2036.0156,601.1094 Q2036.0156,602.2969 2035.4375,603.0938 Q2034.875,603.875 2033.8281,604.2813 Q2032.7969,604.6719 2031.4219,604.6719 Z " fill="#000000"/><text fill="#000000" font-family="sans-serif" font-size="14" lengthAdjust="spacing" textLength="50" x="2052.25" y="602.8467">Sphere</text><line style="stroke:#181818;stroke-width:0.5;" x1="1761.5" x2="2360.5" y1="614" y2="614"/><line style="stroke:#181818;stroke-width:0.5;" x1="1761.5" x2="2360.5" y1="622" y2="622"/><ellipse cx="1771.5" cy="635.6484" fill="#84BE84" rx="3" ry="3" style="stroke:#038048;stroke-width:1.0;"/><text fill="#000000" font-family="sans-serif" font-size="14" lengthAdjust="spacing" textLength="575" x="1780.5" y="638.9951">Sphere(location: Vector3d, scale: double, color: Vector3d, refraction_index: double)</text><ellipse cx="1771.5" cy="651.9453" fill="#84BE84" rx="3" ry="3" style="stroke:#038048;stroke-width:1.0;"/><text fill="#000000" font-family="sans-serif" font-size="14" lengthAdjust="spacing" textLength="148" x="1780.5" y="655.292">is_hit(r: Ray*): double</text><ellipse cx="1771.5" cy="668.2422" fill="#84BE84" rx="3" ry="3" style="stroke:#038048;stroke-width:1.0;"/><text fill="#000000" font-family="sans-serif" font-size="14" lengthAdjust="spacing" textLength="283" x="1780.5" y="671.5889">normal(intersection: Vector3d): Vector3d</text></g><!--MD5=[10813612642ae27aa5ff8d66c0f223e4]
class Plane--><g id="elem_Plane"><rect codeLine="92" fill="#F1F1F1" height="96.8906" id="Plane" rx="2.5" ry="2.5" style="stroke:#181818;stroke-width:0.5;" width="574" x="2397" y="582"/><ellipse cx="2660.75" cy="598" fill="#00FF00" rx="11" ry="11" style="stroke:#181818;stroke-width:1.0;"/><path d="M2657.6094,604.5 L2657.6094,592.3594 L2661.6406,592.3594 Q2663.7344,592.3594 2664.75,593.3438 Q2665.7656,594.3125 2665.7656,596.1406 Q2665.7656,597.3438 2665.3281,598.25 Q2664.9063,599.1563 2663.9531,599.6719 Q2663.0156,600.1875 2661.4844,600.1875 L2659.9844,600.1875 L2659.9844,604.5 L2657.6094,604.5 Z M2661.2344,598.0938 Q2662.2813,598.0938 2662.7969,597.6094 Q2663.3281,597.125 2663.3281,596.2344 Q2663.3281,595.3438 2662.8906,594.9063 Q2662.4688,594.4531 2661.5469,594.4531 L2659.9844,594.4531 L2659.9844,598.0938 L2661.2344,598.0938 Z " fill="#000000"/><text fill="#000000" font-family="sans-serif" font-size="14" lengthAdjust="spacing" textLength="38" x="2681.25" y="602.8467">Plane</text><line style="stroke:#181818;stroke-width:0.5;" x1="2398" x2="2970" y1="614" y2="614"/><line style="stroke:#181818;stroke-width:0.5;" x1="2398" x2="2970" y1="622" y2="622"/><ellipse cx="2408" cy="635.6484" fill="#84BE84" rx="3" ry="3" style="stroke:#038048;stroke-width:1.0;"/><text fill="#000000" font-family="sans-serif" font-size="14" lengthAdjust="spacing" textLength="548" x="2417" y="638.9951">Plane(location: Vector3d, rotation: Vector3d, color: Vector3d, ref_index: double)</text><ellipse cx="2408" cy="651.9453" fill="#84BE84" rx="3" ry="3" style="stroke:#038048;stroke-width:1.0;"/><text fill="#000000" font-family="sans-serif" font-size="14" lengthAdjust="spacing" textLength="148" x="2417" y="655.292">is_hit(r: Ray*): double</text><ellipse cx="2408" cy="668.2422" fill="#84BE84" rx="3" ry="3" style="stroke:#038048;stroke-width:1.0;"/><text fill="#000000" font-family="sans-serif" font-size="14" lengthAdjust="spacing" textLength="283" x="2417" y="671.5889">normal(intersection: Vector3d): Vector3d</text></g><!--MD5=[aa8a78138df9b9efe652e3f572dfeb01]
class Cube--><g id="elem_Cube"><rect codeLine="99" fill="#F1F1F1" height="129.4844" id="Cube" rx="2.5" ry="2.5" style="stroke:#181818;stroke-width:0.5;" width="1437" x="3006.5" y="566"/><ellipse cx="3702.25" cy="582" fill="#ADD1B2" rx="11" ry="11" style="stroke:#181818;stroke-width:1.0;"/><path d="M3701.7188,588.9219 Q3699.9688,588.9219 3698.8281,588.1875 Q3697.7031,587.4375 3697.1406,586.0938 Q3696.5938,584.7344 3696.5938,582.9375 Q3696.5938,580.9063 3697.25,579.4531 Q3697.9063,578 3699.1875,577.2188 Q3700.4688,576.4375 3702.3438,576.4375 Q3703.2344,576.4375 3703.9063,576.625 Q3704.5781,576.7969 3705.2656,577.1406 L3704.4531,579.1563 Q3703.8281,578.8438 3703.2813,578.7188 Q3702.75,578.5938 3702.2656,578.5938 Q3701.0938,578.5938 3700.3906,579.125 Q3699.6875,579.6563 3699.3906,580.6094 Q3699.0938,581.5625 3699.0938,582.8281 Q3699.0938,584.8438 3699.8125,585.8125 Q3700.5313,586.7656 3702.125,586.7656 Q3702.7188,586.7656 3703.3438,586.6094 Q3703.9688,586.4531 3704.7969,586.0781 L3704.7969,588.2969 Q3704.0625,588.6094 3703.2656,588.7656 Q3702.4844,588.9219 3701.7188,588.9219 Z " fill="#000000"/><text fill="#000000" font-family="sans-serif" font-size="14" lengthAdjust="spacing" textLength="37" x="3722.75" y="586.8467">Cube</text><line style="stroke:#181818;stroke-width:0.5;" x1="3007.5" x2="4442.5" y1="598" y2="598"/><rect fill="none" height="6" style="stroke:#C82930;stroke-width:1.0;" width="6" x="3014.5" y="608.6484"/><text fill="#000000" font-family="sans-serif" font-size="14" lengthAdjust="spacing" textLength="167" x="3026.5" y="614.9951">planes: vector&lt;Plane*&gt;</text><line style="stroke:#181818;stroke-width:0.5;" x1="3007.5" x2="4442.5" y1="622.2969" y2="622.2969"/><ellipse cx="3017.5" cy="635.9453" fill="#84BE84" rx="3" ry="3" style="stroke:#038048;stroke-width:1.0;"/><text fill="#000000" font-family="sans-serif" font-size="14" lengthAdjust="spacing" textLength="1411" x="3026.5" y="639.292">Cube(location: Vector3d, rotation: Vector3d, scale: Vector3d, ambient: Vector3d, diffuse: Vector3d, specular: Vector3d, reflected: Vector3d, refracted: Vector3d, shininess: double, refraction_index: double)</text><ellipse cx="3017.5" cy="652.2422" fill="#84BE84" rx="3" ry="3" style="stroke:#038048;stroke-width:1.0;"/><text fill="#000000" font-family="sans-serif" font-size="14" lengthAdjust="spacing" textLength="148" x="3026.5" y="655.5889">is_hit(r: Ray*): double</text><ellipse cx="3017.5" cy="668.5391" fill="#84BE84" rx="3" ry="3" style="stroke:#038048;stroke-width:1.0;"/><text fill="#000000" font-family="sans-serif" font-size="14" lengthAdjust="spacing" textLength="197" x="3026.5" y="671.8857">inside(point: Vector3d): bool</text><ellipse cx="3017.5" cy="684.8359" fill="#84BE84" rx="3" ry="3" style="stroke:#038048;stroke-width:1.0;"/><text fill="#000000" font-family="sans-serif" font-size="14" lengthAdjust="spacing" textLength="283" x="3026.5" y="688.1826">normal(intersection: Vector3d): Vector3d</text></g><!--MD5=[4bd65a6cbb01e21b2b44566c525d141b]
reverse link Scene_Element to Camera--><g id="link_Scene_Element_Camera"><path codeLine="50" d="M1616.53,236.61 C1558.38,269.67 1495.71,305.31 1442.71,335.44 " fill="none" id="Scene_Element-backto-Camera" style="stroke:#181818;stroke-width:1.0;"/><polygon fill="none" points="1613.16,230.47,1634.01,226.67,1620.08,242.64,1613.16,230.47" style="stroke:#181818;stroke-width:1.0;"/></g><!--MD5=[9134c906c2182b26d5b1ed55e796687e]
reverse link Scene_Element to Light--><g id="link_Scene_Element_Light"><path codeLine="59" d="M1804,246.92 C1804,283.35 1804,321.84 1804,352 " fill="none" id="Scene_Element-backto-Light" style="stroke:#181818;stroke-width:1.0;"/><polygon fill="none" points="1797,246.67,1804,226.67,1811,246.67,1797,246.67" style="stroke:#181818;stroke-width:1.0;"/></g><!--MD5=[5248ac1b4317136a344465b47cf44108]
reverse link Scene_Element to Primitive--><g id="link_Scene_Element_Primitive"><path codeLine="73" d="M2020.02,235.54 C2070.73,260.31 2124.51,286.59 2174.37,310.94 " fill="none" id="Scene_Element-backto-Primitive" style="stroke:#181818;stroke-width:1.0;"/><polygon fill="none" points="2016.76,241.74,2001.86,226.67,2022.9,229.16,2016.76,241.74" style="stroke:#181818;stroke-width:1.0;"/></g><!--MD5=[a99086909e430fd25cb6055a0460a505]
reverse link Primitive to Intersection--><g id="link_Primitive_Intersection"><path codeLine="83" d="M1973.99,506.25 C1830,531.32 1693.24,550.21 1561.48,565.97 " fill="none" id="Primitive-backto-Intersection" style="stroke:#181818;stroke-width:1.0;"/><polygon fill="none" points="1972.98,499.32,1993.89,502.75,1975.4,513.11,1972.98,499.32" style="stroke:#181818;stroke-width:1.0;"/></g><!--MD5=[fdc7d3f5812f8405a620d7ec27a18ef3]
reverse link Primitive to Sphere--><g id="link_Primitive_Sphere"><path codeLine="90" d="M2218.6,518.02 C2186.9,540.44 2155.08,562.95 2128.41,581.81 " fill="none" id="Primitive-backto-Sphere" style="stroke:#181818;stroke-width:1.0;"/><polygon fill="none" points="2214.77,512.15,2235.14,506.32,2222.85,523.58,2214.77,512.15" style="stroke:#181818;stroke-width:1.0;"/></g><!--MD5=[fa22b2e0a7faeb72db217dfce78b577b]
reverse link Primitive to Plane--><g id="link_Primitive_Plane"><path codeLine="97" d="M2525.89,518.02 C2557.7,540.44 2589.62,562.95 2616.37,581.81 " fill="none" id="Primitive-backto-Plane" style="stroke:#181818;stroke-width:1.0;"/><polygon fill="none" points="2521.61,523.56,2509.3,506.32,2529.68,512.12,2521.61,523.56" style="stroke:#181818;stroke-width:1.0;"/></g><!--MD5=[e42cc61cd8b66f20cc823b98e121a33d]
reverse link Primitive to Cube--><g id="link_Primitive_Cube"><path codeLine="106" d="M2770.12,474.23 C2948.12,503.18 3157.27,537.19 3334.38,565.99 " fill="none" id="Primitive-backto-Cube" style="stroke:#181818;stroke-width:1.0;"/><polygon fill="none" points="2768.85,481.12,2750.24,471,2771.1,467.3,2768.85,481.12" style="stroke:#181818;stroke-width:1.0;"/></g><!--MD5=[7bdbf76ebd72f781447ec39b0a29f6dc]
@startuml Ray Tracing

class Scene << (S , #FFAAAA) >> {
  - objects: vector<Primitive*>
  - lights: vector<Light*>
  - camera: Camera

  + Scene()
  + load_settings()
  + render_image()
}

class Ray << (R, #FF00FF) >> {
  - location: Vector3d
  - direction: Vector3d
  - ref_index: double

  + Ray()
  + Ray(loc: Vector3d, direct: Vector3d, refraction_index: double)
  + set_location(loc: Vector3d)
  + set_direction(direct: Vector3d)
  + get_location(): Vector3d
  + get_direction(): Vector3d
  + trace_ray(objects: vector<Primitive*>, lights: vector<Light*>, bounces: int): Vector3d
  + compute_closest_object(objects: vector<Primitive*>, distance: double&): int
  + compute_light(objects: vector<Primitive*>, lights: vector<Light*>, intersection: Vector3d): Vector3d
}

class Scene_Element << (S , #0000FA) >> {
  # location: Vector3d
  # rotation: Vector3d
  # scale: Vector3d

  + Scene_Element(location: Vector3d, rotation: Vector3d, scale: Vector3d)
  + Scene_Element()
  + get_location(): Vector3d
  + get_rotation(): Vector3d
  + get_scale(): Vector3d
  + global(local_point: Vector3d): Vector3d
}

class Camera << (C, #00AA00) >> {
  + screen_res: vector<int>
  + screen_points: vector<Vector3d>

  + Camera(location: Vector3d, rotation: Vector3d, depth: double)
  + Camera()
  + compute_screen_points()
  + send_rays(objects: vector<Primitive*>, lights: vector<Light*>): vector<Vector3d>
}
Scene_Element <|- - Camera

class Light << (L, #FFFF00) >> {
  - color: Vector3d

  + Light(location: Vector3d, color: Vector3d)
  + Light(location: Vector3d, color: double)
  + get_color(): Vector3d
}
Scene_Element <|- - Light

class Primitive << (P, #FF7700) >> {
  - ref_index: double
  + color: Vector3d

  + Primitive(location: Vector3d, rotation: Vector3d, scale: Vector3d, color: Vector3d, refraction_index: double)
  + Primitive()
  + get_color(): Vector3d
  + get_refraction_index(): double
  + is_hit(r: Ray*): double
  + normal(intersection: Vector3d): Vector3d
  + reflect_ray(r: Ray, intersection: Vector3d): Ray
}
Scene_Element <|- - Primitive

class Intersection {
  - components: vector<Primitive*>

  + Intersection(location: Vector3d, rotation: Vector3d, scale: Vector3d, ambient: Vector3d, diffuse: Vector3d, specular: Vector3d, reflected: Vector3d, refracted: Vector3d, shininess: double, refraction_index: double, components: vector<Primitive*>)
  + is_hit(r: Ray*): double
  + inside(point: Vector3d): bool
  + normal(intersection: Vector3d): Vector3d
}
Primitive <|- - Intersection

class Sphere << (S, #0000FF) >> {
  + Sphere(location: Vector3d, scale: double, color: Vector3d, refraction_index: double)
  + is_hit(r: Ray*): double
  + normal(intersection: Vector3d): Vector3d
}
Primitive <|- - Sphere

class Plane << (P, #00FF00) >> {
  + Plane(location: Vector3d, rotation: Vector3d, color: Vector3d, ref_index: double)
  + is_hit(r: Ray*): double
  + normal(intersection: Vector3d): Vector3d
}
Primitive <|- - Plane

class Cube {
  - planes: vector<Plane*>
  + Cube(location: Vector3d, rotation: Vector3d, scale: Vector3d, ambient: Vector3d, diffuse: Vector3d, specular: Vector3d, reflected: Vector3d, refracted: Vector3d, shininess: double, refraction_index: double)
  + is_hit(r: Ray*): double
  + inside(point: Vector3d): bool
  + normal(intersection: Vector3d): Vector3d
}
Primitive <|- - Cube
@enduml

PlantUML version 1.2022.7(Mon Aug 22 19:01:30 CEST 2022)
(GPL source distribution)
Java Runtime: OpenJDK Runtime Environment
JVM: OpenJDK 64-Bit Server VM
Default Encoding: UTF-8
Language: en
Country: US
--></g></svg>